solid OpenSCAD_Model
  facet normal -1 0 0
    outer loop
      vertex 2.275 -1.49 0
      vertex 2.275 -0.709523 5.5
      vertex 2.275 -0.709523 0
    endloop
  endfacet
  facet normal -1 -0 0
    outer loop
      vertex 2.275 -0.709523 5.5
      vertex 2.275 -1.49 0
      vertex 2.275 -1.49 5.5
    endloop
  endfacet
  facet normal -1 0 0
    outer loop
      vertex 2.275 0.709523 0
      vertex 2.275 1.49 5.5
      vertex 2.275 1.49 0
    endloop
  endfacet
  facet normal -1 -0 0
    outer loop
      vertex 2.275 1.49 5.5
      vertex 2.275 0.709523 0
      vertex 2.275 0.709523 5.5
    endloop
  endfacet
  facet normal 0 0 1
    outer loop
      vertex 3.425 1.49 5.5
      vertex 3.23333 0.709523 5.5
      vertex 3.425 0.709523 5.5
    endloop
  endfacet
  facet normal 0 0 1
    outer loop
      vertex 3.23333 0.709523 5.5
      vertex 2.46667 0.709523 5.5
      vertex 3.23333 -0.709523 5.5
    endloop
  endfacet
  facet normal 0 0 1
    outer loop
      vertex 3.425 1.49 5.5
      vertex 2.46667 0.709523 5.5
      vertex 3.23333 0.709523 5.5
    endloop
  endfacet
  facet normal -0 0 1
    outer loop
      vertex 2.275 1.49 5.5
      vertex 2.46667 0.709523 5.5
      vertex 3.425 1.49 5.5
    endloop
  endfacet
  facet normal 0 0 1
    outer loop
      vertex 2.46667 0.709523 5.5
      vertex 2.275 1.49 5.5
      vertex 2.275 0.709523 5.5
    endloop
  endfacet
  facet normal -0 0 1
    outer loop
      vertex 3.23333 -0.709523 5.5
      vertex 3.425 -1.49 5.5
      vertex 3.425 -0.709523 5.5
    endloop
  endfacet
  facet normal 0 0 1
    outer loop
      vertex 2.46667 -0.709523 5.5
      vertex 3.23333 -0.709523 5.5
      vertex 2.46667 0.709523 5.5
    endloop
  endfacet
  facet normal 0 0 1
    outer loop
      vertex 3.23333 -0.709523 5.5
      vertex 2.46667 -0.709523 5.5
      vertex 3.425 -1.49 5.5
    endloop
  endfacet
  facet normal 0 0 1
    outer loop
      vertex 2.275 -1.49 5.5
      vertex 2.46667 -0.709523 5.5
      vertex 2.275 -0.709523 5.5
    endloop
  endfacet
  facet normal 0 0 1
    outer loop
      vertex 2.46667 -0.709523 5.5
      vertex 2.275 -1.49 5.5
      vertex 3.425 -1.49 5.5
    endloop
  endfacet
  facet normal 1 -0 0
    outer loop
      vertex 3.425 -1.49 5.5
      vertex 3.425 -0.709523 0
      vertex 3.425 -0.709523 5.5
    endloop
  endfacet
  facet normal 1 0 0
    outer loop
      vertex 3.425 -0.709523 0
      vertex 3.425 -1.49 5.5
      vertex 3.425 -1.49 0
    endloop
  endfacet
  facet normal 1 -0 0
    outer loop
      vertex 3.425 0.709523 5.5
      vertex 3.425 1.49 0
      vertex 3.425 1.49 5.5
    endloop
  endfacet
  facet normal 1 0 0
    outer loop
      vertex 3.425 1.49 0
      vertex 3.425 0.709523 5.5
      vertex 3.425 0.709523 0
    endloop
  endfacet
  facet normal 0 1 -0
    outer loop
      vertex 3.425 1.49 0
      vertex 2.275 1.49 5.5
      vertex 3.425 1.49 5.5
    endloop
  endfacet
  facet normal 0 1 0
    outer loop
      vertex 2.275 1.49 5.5
      vertex 3.425 1.49 0
      vertex 2.275 1.49 0
    endloop
  endfacet
  facet normal 0 0 -1
    outer loop
      vertex 3.425 -1.49 0
      vertex 3.23333 -0.709523 0
      vertex 3.425 -0.709523 0
    endloop
  endfacet
  facet normal 0 0 -1
    outer loop
      vertex 3.23333 -0.709523 0
      vertex 2.46667 -0.709523 0
      vertex 3.23333 0.709523 0
    endloop
  endfacet
  facet normal 0 0 -1
    outer loop
      vertex 3.425 -1.49 0
      vertex 2.46667 -0.709523 0
      vertex 3.23333 -0.709523 0
    endloop
  endfacet
  facet normal 0 0 -1
    outer loop
      vertex 2.275 -1.49 0
      vertex 2.46667 -0.709523 0
      vertex 3.425 -1.49 0
    endloop
  endfacet
  facet normal -0 0 -1
    outer loop
      vertex 2.46667 -0.709523 0
      vertex 2.275 -1.49 0
      vertex 2.275 -0.709523 0
    endloop
  endfacet
  facet normal 0 0 -1
    outer loop
      vertex 3.23333 0.709523 0
      vertex 3.425 1.49 0
      vertex 3.425 0.709523 0
    endloop
  endfacet
  facet normal 0 0 -1
    outer loop
      vertex 2.46667 0.709523 0
      vertex 3.23333 0.709523 0
      vertex 2.46667 -0.709523 0
    endloop
  endfacet
  facet normal 0 0 -1
    outer loop
      vertex 3.23333 0.709523 0
      vertex 2.46667 0.709523 0
      vertex 3.425 1.49 0
    endloop
  endfacet
  facet normal 0 0 -1
    outer loop
      vertex 2.275 1.49 0
      vertex 2.46667 0.709523 0
      vertex 2.275 0.709523 0
    endloop
  endfacet
  facet normal 0 0 -1
    outer loop
      vertex 2.46667 0.709523 0
      vertex 2.275 1.49 0
      vertex 3.425 1.49 0
    endloop
  endfacet
  facet normal 0 -1 0
    outer loop
      vertex 2.275 -1.49 0
      vertex 3.425 -1.49 5.5
      vertex 2.275 -1.49 5.5
    endloop
  endfacet
  facet normal 0 -1 -0
    outer loop
      vertex 3.425 -1.49 5.5
      vertex 2.275 -1.49 0
      vertex 3.425 -1.49 0
    endloop
  endfacet
  facet normal 1 -0 0
    outer loop
      vertex 3.23333 -0.709523 5.5
      vertex 3.23333 0.709523 0
      vertex 3.23333 0.709523 5.5
    endloop
  endfacet
  facet normal 1 0 0
    outer loop
      vertex 3.23333 0.709523 0
      vertex 3.23333 -0.709523 5.5
      vertex 3.23333 -0.709523 0
    endloop
  endfacet
  facet normal 0 1 -0
    outer loop
      vertex 3.425 -0.709523 0
      vertex 3.23333 -0.709523 5.5
      vertex 3.425 -0.709523 5.5
    endloop
  endfacet
  facet normal 0 1 0
    outer loop
      vertex 3.23333 -0.709523 5.5
      vertex 3.425 -0.709523 0
      vertex 3.23333 -0.709523 0
    endloop
  endfacet
  facet normal 0 -1 0
    outer loop
      vertex 3.23333 0.709523 0
      vertex 3.425 0.709523 5.5
      vertex 3.23333 0.709523 5.5
    endloop
  endfacet
  facet normal 0 -1 -0
    outer loop
      vertex 3.425 0.709523 5.5
      vertex 3.23333 0.709523 0
      vertex 3.425 0.709523 0
    endloop
  endfacet
  facet normal -1 0 0
    outer loop
      vertex 2.46667 -0.709523 0
      vertex 2.46667 0.709523 5.5
      vertex 2.46667 0.709523 0
    endloop
  endfacet
  facet normal -1 -0 0
    outer loop
      vertex 2.46667 0.709523 5.5
      vertex 2.46667 -0.709523 0
      vertex 2.46667 -0.709523 5.5
    endloop
  endfacet
  facet normal 0 1 -0
    outer loop
      vertex 2.46667 -0.709523 0
      vertex 2.275 -0.709523 5.5
      vertex 2.46667 -0.709523 5.5
    endloop
  endfacet
  facet normal 0 1 0
    outer loop
      vertex 2.275 -0.709523 5.5
      vertex 2.46667 -0.709523 0
      vertex 2.275 -0.709523 0
    endloop
  endfacet
  facet normal 0 -1 0
    outer loop
      vertex 2.275 0.709523 0
      vertex 2.46667 0.709523 5.5
      vertex 2.275 0.709523 5.5
    endloop
  endfacet
  facet normal 0 -1 -0
    outer loop
      vertex 2.46667 0.709523 5.5
      vertex 2.275 0.709523 0
      vertex 2.46667 0.709523 0
    endloop
  endfacet
  facet normal -1 0 0
    outer loop
      vertex -3.425 -1.49 0
      vertex -3.425 -0.709523 5.5
      vertex -3.425 -0.709523 0
    endloop
  endfacet
  facet normal -1 -0 0
    outer loop
      vertex -3.425 -0.709523 5.5
      vertex -3.425 -1.49 0
      vertex -3.425 -1.49 5.5
    endloop
  endfacet
  facet normal -1 0 0
    outer loop
      vertex -3.425 0.709523 0
      vertex -3.425 1.49 5.5
      vertex -3.425 1.49 0
    endloop
  endfacet
  facet normal -1 -0 0
    outer loop
      vertex -3.425 1.49 5.5
      vertex -3.425 0.709523 0
      vertex -3.425 0.709523 5.5
    endloop
  endfacet
  facet normal 0 0 1
    outer loop
      vertex -2.275 1.49 5.5
      vertex -2.46667 0.709523 5.5
      vertex -2.275 0.709523 5.5
    endloop
  endfacet
  facet normal 0 0 1
    outer loop
      vertex -2.46667 0.709523 5.5
      vertex -3.23333 0.709523 5.5
      vertex -2.46667 -0.709523 5.5
    endloop
  endfacet
  facet normal 0 0 1
    outer loop
      vertex -2.275 1.49 5.5
      vertex -3.23333 0.709523 5.5
      vertex -2.46667 0.709523 5.5
    endloop
  endfacet
  facet normal -0 0 1
    outer loop
      vertex -3.425 1.49 5.5
      vertex -3.23333 0.709523 5.5
      vertex -2.275 1.49 5.5
    endloop
  endfacet
  facet normal 0 0 1
    outer loop
      vertex -3.23333 0.709523 5.5
      vertex -3.425 1.49 5.5
      vertex -3.425 0.709523 5.5
    endloop
  endfacet
  facet normal -0 0 1
    outer loop
      vertex -2.46667 -0.709523 5.5
      vertex -2.275 -1.49 5.5
      vertex -2.275 -0.709523 5.5
    endloop
  endfacet
  facet normal 0 0 1
    outer loop
      vertex -3.23333 -0.709523 5.5
      vertex -2.46667 -0.709523 5.5
      vertex -3.23333 0.709523 5.5
    endloop
  endfacet
  facet normal 0 0 1
    outer loop
      vertex -2.46667 -0.709523 5.5
      vertex -3.23333 -0.709523 5.5
      vertex -2.275 -1.49 5.5
    endloop
  endfacet
  facet normal 0 0 1
    outer loop
      vertex -3.425 -1.49 5.5
      vertex -3.23333 -0.709523 5.5
      vertex -3.425 -0.709523 5.5
    endloop
  endfacet
  facet normal 0 0 1
    outer loop
      vertex -3.23333 -0.709523 5.5
      vertex -3.425 -1.49 5.5
      vertex -2.275 -1.49 5.5
    endloop
  endfacet
  facet normal 1 -0 0
    outer loop
      vertex -2.275 -1.49 5.5
      vertex -2.275 -0.709523 0
      vertex -2.275 -0.709523 5.5
    endloop
  endfacet
  facet normal 1 0 0
    outer loop
      vertex -2.275 -0.709523 0
      vertex -2.275 -1.49 5.5
      vertex -2.275 -1.49 0
    endloop
  endfacet
  facet normal 1 -0 0
    outer loop
      vertex -2.275 0.709523 5.5
      vertex -2.275 1.49 0
      vertex -2.275 1.49 5.5
    endloop
  endfacet
  facet normal 1 0 0
    outer loop
      vertex -2.275 1.49 0
      vertex -2.275 0.709523 5.5
      vertex -2.275 0.709523 0
    endloop
  endfacet
  facet normal 0 1 -0
    outer loop
      vertex -2.275 1.49 0
      vertex -3.425 1.49 5.5
      vertex -2.275 1.49 5.5
    endloop
  endfacet
  facet normal 0 1 0
    outer loop
      vertex -3.425 1.49 5.5
      vertex -2.275 1.49 0
      vertex -3.425 1.49 0
    endloop
  endfacet
  facet normal 0 0 -1
    outer loop
      vertex -2.275 -1.49 0
      vertex -2.46667 -0.709523 0
      vertex -2.275 -0.709523 0
    endloop
  endfacet
  facet normal 0 0 -1
    outer loop
      vertex -2.46667 -0.709523 0
      vertex -3.23333 -0.709523 0
      vertex -2.46667 0.709523 0
    endloop
  endfacet
  facet normal 0 0 -1
    outer loop
      vertex -2.275 -1.49 0
      vertex -3.23333 -0.709523 0
      vertex -2.46667 -0.709523 0
    endloop
  endfacet
  facet normal 0 0 -1
    outer loop
      vertex -3.425 -1.49 0
      vertex -3.23333 -0.709523 0
      vertex -2.275 -1.49 0
    endloop
  endfacet
  facet normal -0 0 -1
    outer loop
      vertex -3.23333 -0.709523 0
      vertex -3.425 -1.49 0
      vertex -3.425 -0.709523 0
    endloop
  endfacet
  facet normal 0 0 -1
    outer loop
      vertex -2.46667 0.709523 0
      vertex -2.275 1.49 0
      vertex -2.275 0.709523 0
    endloop
  endfacet
  facet normal 0 0 -1
    outer loop
      vertex -3.23333 0.709523 0
      vertex -2.46667 0.709523 0
      vertex -3.23333 -0.709523 0
    endloop
  endfacet
  facet normal 0 0 -1
    outer loop
      vertex -2.46667 0.709523 0
      vertex -3.23333 0.709523 0
      vertex -2.275 1.49 0
    endloop
  endfacet
  facet normal 0 0 -1
    outer loop
      vertex -3.425 1.49 0
      vertex -3.23333 0.709523 0
      vertex -3.425 0.709523 0
    endloop
  endfacet
  facet normal 0 0 -1
    outer loop
      vertex -3.23333 0.709523 0
      vertex -3.425 1.49 0
      vertex -2.275 1.49 0
    endloop
  endfacet
  facet normal 0 -1 0
    outer loop
      vertex -3.425 -1.49 0
      vertex -2.275 -1.49 5.5
      vertex -3.425 -1.49 5.5
    endloop
  endfacet
  facet normal 0 -1 -0
    outer loop
      vertex -2.275 -1.49 5.5
      vertex -3.425 -1.49 0
      vertex -2.275 -1.49 0
    endloop
  endfacet
  facet normal 1 -0 0
    outer loop
      vertex -2.46667 -0.709523 5.5
      vertex -2.46667 0.709523 0
      vertex -2.46667 0.709523 5.5
    endloop
  endfacet
  facet normal 1 0 0
    outer loop
      vertex -2.46667 0.709523 0
      vertex -2.46667 -0.709523 5.5
      vertex -2.46667 -0.709523 0
    endloop
  endfacet
  facet normal 0 1 -0
    outer loop
      vertex -2.275 -0.709523 0
      vertex -2.46667 -0.709523 5.5
      vertex -2.275 -0.709523 5.5
    endloop
  endfacet
  facet normal 0 1 0
    outer loop
      vertex -2.46667 -0.709523 5.5
      vertex -2.275 -0.709523 0
      vertex -2.46667 -0.709523 0
    endloop
  endfacet
  facet normal 0 -1 0
    outer loop
      vertex -2.46667 0.709523 0
      vertex -2.275 0.709523 5.5
      vertex -2.46667 0.709523 5.5
    endloop
  endfacet
  facet normal 0 -1 -0
    outer loop
      vertex -2.275 0.709523 5.5
      vertex -2.46667 0.709523 0
      vertex -2.275 0.709523 0
    endloop
  endfacet
  facet normal -1 0 0
    outer loop
      vertex -3.23333 -0.709523 0
      vertex -3.23333 0.709523 5.5
      vertex -3.23333 0.709523 0
    endloop
  endfacet
  facet normal -1 -0 0
    outer loop
      vertex -3.23333 0.709523 5.5
      vertex -3.23333 -0.709523 0
      vertex -3.23333 -0.709523 5.5
    endloop
  endfacet
  facet normal 0 1 -0
    outer loop
      vertex -3.23333 -0.709523 0
      vertex -3.425 -0.709523 5.5
      vertex -3.23333 -0.709523 5.5
    endloop
  endfacet
  facet normal 0 1 0
    outer loop
      vertex -3.425 -0.709523 5.5
      vertex -3.23333 -0.709523 0
      vertex -3.425 -0.709523 0
    endloop
  endfacet
  facet normal 0 -1 0
    outer loop
      vertex -3.425 0.709523 0
      vertex -3.23333 0.709523 5.5
      vertex -3.425 0.709523 5.5
    endloop
  endfacet
  facet normal 0 -1 -0
    outer loop
      vertex -3.23333 0.709523 5.5
      vertex -3.425 0.709523 0
      vertex -3.23333 0.709523 0
    endloop
  endfacet
endsolid OpenSCAD_Model
