solid OpenSCAD_Model
  facet normal -1 0 0
    outer loop
      vertex 2.19375 -1.5645 -0.1375
      vertex 2.19375 -0.745 5.6375
      vertex 2.19375 -0.745 -0.1375
    endloop
  endfacet
  facet normal -1 -0 0
    outer loop
      vertex 2.19375 -0.745 5.6375
      vertex 2.19375 -1.5645 -0.1375
      vertex 2.19375 -1.5645 5.6375
    endloop
  endfacet
  facet normal -1 0 0
    outer loop
      vertex 2.19375 0.745 -0.1375
      vertex 2.19375 1.5645 5.6375
      vertex 2.19375 1.5645 -0.1375
    endloop
  endfacet
  facet normal -1 -0 0
    outer loop
      vertex 2.19375 1.5645 5.6375
      vertex 2.19375 0.745 -0.1375
      vertex 2.19375 0.745 5.6375
    endloop
  endfacet
  facet normal 0 0 1
    outer loop
      vertex 3.50625 1.5645 5.6375
      vertex 3.36042 0.745 5.6375
      vertex 3.50625 0.745 5.6375
    endloop
  endfacet
  facet normal 0 0 1
    outer loop
      vertex 3.36042 0.745 5.6375
      vertex 2.33958 0.745 5.6375
      vertex 3.36042 -0.745 5.6375
    endloop
  endfacet
  facet normal 0 0 1
    outer loop
      vertex 3.50625 1.5645 5.6375
      vertex 2.33958 0.745 5.6375
      vertex 3.36042 0.745 5.6375
    endloop
  endfacet
  facet normal -0 0 1
    outer loop
      vertex 2.19375 1.5645 5.6375
      vertex 2.33958 0.745 5.6375
      vertex 3.50625 1.5645 5.6375
    endloop
  endfacet
  facet normal 0 0 1
    outer loop
      vertex 2.33958 0.745 5.6375
      vertex 2.19375 1.5645 5.6375
      vertex 2.19375 0.745 5.6375
    endloop
  endfacet
  facet normal -0 0 1
    outer loop
      vertex 3.36042 -0.745 5.6375
      vertex 3.50625 -1.5645 5.6375
      vertex 3.50625 -0.745 5.6375
    endloop
  endfacet
  facet normal 0 0 1
    outer loop
      vertex 2.33958 -0.745 5.6375
      vertex 3.36042 -0.745 5.6375
      vertex 2.33958 0.745 5.6375
    endloop
  endfacet
  facet normal 0 0 1
    outer loop
      vertex 3.36042 -0.745 5.6375
      vertex 2.33958 -0.745 5.6375
      vertex 3.50625 -1.5645 5.6375
    endloop
  endfacet
  facet normal 0 0 1
    outer loop
      vertex 2.19375 -1.5645 5.6375
      vertex 2.33958 -0.745 5.6375
      vertex 2.19375 -0.745 5.6375
    endloop
  endfacet
  facet normal 0 0 1
    outer loop
      vertex 2.33958 -0.745 5.6375
      vertex 2.19375 -1.5645 5.6375
      vertex 3.50625 -1.5645 5.6375
    endloop
  endfacet
  facet normal 1 -0 0
    outer loop
      vertex 3.50625 -1.5645 5.6375
      vertex 3.50625 -0.745 -0.1375
      vertex 3.50625 -0.745 5.6375
    endloop
  endfacet
  facet normal 1 0 0
    outer loop
      vertex 3.50625 -0.745 -0.1375
      vertex 3.50625 -1.5645 5.6375
      vertex 3.50625 -1.5645 -0.1375
    endloop
  endfacet
  facet normal 1 -0 0
    outer loop
      vertex 3.50625 0.745 5.6375
      vertex 3.50625 1.5645 -0.1375
      vertex 3.50625 1.5645 5.6375
    endloop
  endfacet
  facet normal 1 0 0
    outer loop
      vertex 3.50625 1.5645 -0.1375
      vertex 3.50625 0.745 5.6375
      vertex 3.50625 0.745 -0.1375
    endloop
  endfacet
  facet normal 0 1 -0
    outer loop
      vertex 3.50625 1.5645 -0.1375
      vertex 2.19375 1.5645 5.6375
      vertex 3.50625 1.5645 5.6375
    endloop
  endfacet
  facet normal 0 1 0
    outer loop
      vertex 2.19375 1.5645 5.6375
      vertex 3.50625 1.5645 -0.1375
      vertex 2.19375 1.5645 -0.1375
    endloop
  endfacet
  facet normal 0 0 -1
    outer loop
      vertex 3.50625 -1.5645 -0.1375
      vertex 3.36042 -0.745 -0.1375
      vertex 3.50625 -0.745 -0.1375
    endloop
  endfacet
  facet normal 0 0 -1
    outer loop
      vertex 3.36042 -0.745 -0.1375
      vertex 2.33958 -0.745 -0.1375
      vertex 3.36042 0.745 -0.1375
    endloop
  endfacet
  facet normal 0 0 -1
    outer loop
      vertex 3.50625 -1.5645 -0.1375
      vertex 2.33958 -0.745 -0.1375
      vertex 3.36042 -0.745 -0.1375
    endloop
  endfacet
  facet normal 0 0 -1
    outer loop
      vertex 2.19375 -1.5645 -0.1375
      vertex 2.33958 -0.745 -0.1375
      vertex 3.50625 -1.5645 -0.1375
    endloop
  endfacet
  facet normal -0 0 -1
    outer loop
      vertex 2.33958 -0.745 -0.1375
      vertex 2.19375 -1.5645 -0.1375
      vertex 2.19375 -0.745 -0.1375
    endloop
  endfacet
  facet normal 0 0 -1
    outer loop
      vertex 3.36042 0.745 -0.1375
      vertex 3.50625 1.5645 -0.1375
      vertex 3.50625 0.745 -0.1375
    endloop
  endfacet
  facet normal 0 0 -1
    outer loop
      vertex 2.33958 0.745 -0.1375
      vertex 3.36042 0.745 -0.1375
      vertex 2.33958 -0.745 -0.1375
    endloop
  endfacet
  facet normal 0 0 -1
    outer loop
      vertex 3.36042 0.745 -0.1375
      vertex 2.33958 0.745 -0.1375
      vertex 3.50625 1.5645 -0.1375
    endloop
  endfacet
  facet normal 0 0 -1
    outer loop
      vertex 2.19375 1.5645 -0.1375
      vertex 2.33958 0.745 -0.1375
      vertex 2.19375 0.745 -0.1375
    endloop
  endfacet
  facet normal 0 0 -1
    outer loop
      vertex 2.33958 0.745 -0.1375
      vertex 2.19375 1.5645 -0.1375
      vertex 3.50625 1.5645 -0.1375
    endloop
  endfacet
  facet normal 0 -1 0
    outer loop
      vertex 2.19375 -1.5645 -0.1375
      vertex 3.50625 -1.5645 5.6375
      vertex 2.19375 -1.5645 5.6375
    endloop
  endfacet
  facet normal 0 -1 -0
    outer loop
      vertex 3.50625 -1.5645 5.6375
      vertex 2.19375 -1.5645 -0.1375
      vertex 3.50625 -1.5645 -0.1375
    endloop
  endfacet
  facet normal 1 -0 0
    outer loop
      vertex 3.36042 -0.745 5.6375
      vertex 3.36042 0.745 -0.1375
      vertex 3.36042 0.745 5.6375
    endloop
  endfacet
  facet normal 1 0 0
    outer loop
      vertex 3.36042 0.745 -0.1375
      vertex 3.36042 -0.745 5.6375
      vertex 3.36042 -0.745 -0.1375
    endloop
  endfacet
  facet normal 0 1 -0
    outer loop
      vertex 3.50625 -0.745 -0.1375
      vertex 3.36042 -0.745 5.6375
      vertex 3.50625 -0.745 5.6375
    endloop
  endfacet
  facet normal 0 1 0
    outer loop
      vertex 3.36042 -0.745 5.6375
      vertex 3.50625 -0.745 -0.1375
      vertex 3.36042 -0.745 -0.1375
    endloop
  endfacet
  facet normal 0 -1 0
    outer loop
      vertex 3.36042 0.745 -0.1375
      vertex 3.50625 0.745 5.6375
      vertex 3.36042 0.745 5.6375
    endloop
  endfacet
  facet normal 0 -1 -0
    outer loop
      vertex 3.50625 0.745 5.6375
      vertex 3.36042 0.745 -0.1375
      vertex 3.50625 0.745 -0.1375
    endloop
  endfacet
  facet normal -1 0 0
    outer loop
      vertex 2.33958 -0.745 -0.1375
      vertex 2.33958 0.745 5.6375
      vertex 2.33958 0.745 -0.1375
    endloop
  endfacet
  facet normal -1 -0 0
    outer loop
      vertex 2.33958 0.745 5.6375
      vertex 2.33958 -0.745 -0.1375
      vertex 2.33958 -0.745 5.6375
    endloop
  endfacet
  facet normal 0 1 -0
    outer loop
      vertex 2.33958 -0.745 -0.1375
      vertex 2.19375 -0.745 5.6375
      vertex 2.33958 -0.745 5.6375
    endloop
  endfacet
  facet normal 0 1 0
    outer loop
      vertex 2.19375 -0.745 5.6375
      vertex 2.33958 -0.745 -0.1375
      vertex 2.19375 -0.745 -0.1375
    endloop
  endfacet
  facet normal 0 -1 0
    outer loop
      vertex 2.19375 0.745 -0.1375
      vertex 2.33958 0.745 5.6375
      vertex 2.19375 0.745 5.6375
    endloop
  endfacet
  facet normal 0 -1 -0
    outer loop
      vertex 2.33958 0.745 5.6375
      vertex 2.19375 0.745 -0.1375
      vertex 2.33958 0.745 -0.1375
    endloop
  endfacet
  facet normal -1 0 0
    outer loop
      vertex -3.50625 -1.5645 -0.1375
      vertex -3.50625 -0.745 5.6375
      vertex -3.50625 -0.745 -0.1375
    endloop
  endfacet
  facet normal -1 -0 0
    outer loop
      vertex -3.50625 -0.745 5.6375
      vertex -3.50625 -1.5645 -0.1375
      vertex -3.50625 -1.5645 5.6375
    endloop
  endfacet
  facet normal -1 0 0
    outer loop
      vertex -3.50625 0.745 -0.1375
      vertex -3.50625 1.5645 5.6375
      vertex -3.50625 1.5645 -0.1375
    endloop
  endfacet
  facet normal -1 -0 0
    outer loop
      vertex -3.50625 1.5645 5.6375
      vertex -3.50625 0.745 -0.1375
      vertex -3.50625 0.745 5.6375
    endloop
  endfacet
  facet normal 0 0 1
    outer loop
      vertex -2.19375 1.5645 5.6375
      vertex -2.33958 0.745 5.6375
      vertex -2.19375 0.745 5.6375
    endloop
  endfacet
  facet normal 0 0 1
    outer loop
      vertex -2.33958 0.745 5.6375
      vertex -3.36042 0.745 5.6375
      vertex -2.33958 -0.745 5.6375
    endloop
  endfacet
  facet normal 0 0 1
    outer loop
      vertex -2.19375 1.5645 5.6375
      vertex -3.36042 0.745 5.6375
      vertex -2.33958 0.745 5.6375
    endloop
  endfacet
  facet normal -0 0 1
    outer loop
      vertex -3.50625 1.5645 5.6375
      vertex -3.36042 0.745 5.6375
      vertex -2.19375 1.5645 5.6375
    endloop
  endfacet
  facet normal 0 0 1
    outer loop
      vertex -3.36042 0.745 5.6375
      vertex -3.50625 1.5645 5.6375
      vertex -3.50625 0.745 5.6375
    endloop
  endfacet
  facet normal -0 0 1
    outer loop
      vertex -2.33958 -0.745 5.6375
      vertex -2.19375 -1.5645 5.6375
      vertex -2.19375 -0.745 5.6375
    endloop
  endfacet
  facet normal 0 0 1
    outer loop
      vertex -3.36042 -0.745 5.6375
      vertex -2.33958 -0.745 5.6375
      vertex -3.36042 0.745 5.6375
    endloop
  endfacet
  facet normal 0 0 1
    outer loop
      vertex -2.33958 -0.745 5.6375
      vertex -3.36042 -0.745 5.6375
      vertex -2.19375 -1.5645 5.6375
    endloop
  endfacet
  facet normal 0 0 1
    outer loop
      vertex -3.50625 -1.5645 5.6375
      vertex -3.36042 -0.745 5.6375
      vertex -3.50625 -0.745 5.6375
    endloop
  endfacet
  facet normal 0 0 1
    outer loop
      vertex -3.36042 -0.745 5.6375
      vertex -3.50625 -1.5645 5.6375
      vertex -2.19375 -1.5645 5.6375
    endloop
  endfacet
  facet normal 1 -0 0
    outer loop
      vertex -2.19375 -1.5645 5.6375
      vertex -2.19375 -0.745 -0.1375
      vertex -2.19375 -0.745 5.6375
    endloop
  endfacet
  facet normal 1 0 0
    outer loop
      vertex -2.19375 -0.745 -0.1375
      vertex -2.19375 -1.5645 5.6375
      vertex -2.19375 -1.5645 -0.1375
    endloop
  endfacet
  facet normal 1 -0 0
    outer loop
      vertex -2.19375 0.745 5.6375
      vertex -2.19375 1.5645 -0.1375
      vertex -2.19375 1.5645 5.6375
    endloop
  endfacet
  facet normal 1 0 0
    outer loop
      vertex -2.19375 1.5645 -0.1375
      vertex -2.19375 0.745 5.6375
      vertex -2.19375 0.745 -0.1375
    endloop
  endfacet
  facet normal 0 1 -0
    outer loop
      vertex -2.19375 1.5645 -0.1375
      vertex -3.50625 1.5645 5.6375
      vertex -2.19375 1.5645 5.6375
    endloop
  endfacet
  facet normal 0 1 0
    outer loop
      vertex -3.50625 1.5645 5.6375
      vertex -2.19375 1.5645 -0.1375
      vertex -3.50625 1.5645 -0.1375
    endloop
  endfacet
  facet normal 0 0 -1
    outer loop
      vertex -2.19375 -1.5645 -0.1375
      vertex -2.33958 -0.745 -0.1375
      vertex -2.19375 -0.745 -0.1375
    endloop
  endfacet
  facet normal 0 0 -1
    outer loop
      vertex -2.33958 -0.745 -0.1375
      vertex -3.36042 -0.745 -0.1375
      vertex -2.33958 0.745 -0.1375
    endloop
  endfacet
  facet normal 0 0 -1
    outer loop
      vertex -2.19375 -1.5645 -0.1375
      vertex -3.36042 -0.745 -0.1375
      vertex -2.33958 -0.745 -0.1375
    endloop
  endfacet
  facet normal 0 0 -1
    outer loop
      vertex -3.50625 -1.5645 -0.1375
      vertex -3.36042 -0.745 -0.1375
      vertex -2.19375 -1.5645 -0.1375
    endloop
  endfacet
  facet normal -0 0 -1
    outer loop
      vertex -3.36042 -0.745 -0.1375
      vertex -3.50625 -1.5645 -0.1375
      vertex -3.50625 -0.745 -0.1375
    endloop
  endfacet
  facet normal 0 0 -1
    outer loop
      vertex -2.33958 0.745 -0.1375
      vertex -2.19375 1.5645 -0.1375
      vertex -2.19375 0.745 -0.1375
    endloop
  endfacet
  facet normal 0 0 -1
    outer loop
      vertex -3.36042 0.745 -0.1375
      vertex -2.33958 0.745 -0.1375
      vertex -3.36042 -0.745 -0.1375
    endloop
  endfacet
  facet normal 0 0 -1
    outer loop
      vertex -2.33958 0.745 -0.1375
      vertex -3.36042 0.745 -0.1375
      vertex -2.19375 1.5645 -0.1375
    endloop
  endfacet
  facet normal 0 0 -1
    outer loop
      vertex -3.50625 1.5645 -0.1375
      vertex -3.36042 0.745 -0.1375
      vertex -3.50625 0.745 -0.1375
    endloop
  endfacet
  facet normal 0 0 -1
    outer loop
      vertex -3.36042 0.745 -0.1375
      vertex -3.50625 1.5645 -0.1375
      vertex -2.19375 1.5645 -0.1375
    endloop
  endfacet
  facet normal 0 -1 0
    outer loop
      vertex -3.50625 -1.5645 -0.1375
      vertex -2.19375 -1.5645 5.6375
      vertex -3.50625 -1.5645 5.6375
    endloop
  endfacet
  facet normal 0 -1 -0
    outer loop
      vertex -2.19375 -1.5645 5.6375
      vertex -3.50625 -1.5645 -0.1375
      vertex -2.19375 -1.5645 -0.1375
    endloop
  endfacet
  facet normal 1 -0 0
    outer loop
      vertex -2.33958 -0.745 5.6375
      vertex -2.33958 0.745 -0.1375
      vertex -2.33958 0.745 5.6375
    endloop
  endfacet
  facet normal 1 0 0
    outer loop
      vertex -2.33958 0.745 -0.1375
      vertex -2.33958 -0.745 5.6375
      vertex -2.33958 -0.745 -0.1375
    endloop
  endfacet
  facet normal 0 1 -0
    outer loop
      vertex -2.19375 -0.745 -0.1375
      vertex -2.33958 -0.745 5.6375
      vertex -2.19375 -0.745 5.6375
    endloop
  endfacet
  facet normal 0 1 0
    outer loop
      vertex -2.33958 -0.745 5.6375
      vertex -2.19375 -0.745 -0.1375
      vertex -2.33958 -0.745 -0.1375
    endloop
  endfacet
  facet normal 0 -1 0
    outer loop
      vertex -2.33958 0.745 -0.1375
      vertex -2.19375 0.745 5.6375
      vertex -2.33958 0.745 5.6375
    endloop
  endfacet
  facet normal 0 -1 -0
    outer loop
      vertex -2.19375 0.745 5.6375
      vertex -2.33958 0.745 -0.1375
      vertex -2.19375 0.745 -0.1375
    endloop
  endfacet
  facet normal -1 0 0
    outer loop
      vertex -3.36042 -0.745 -0.1375
      vertex -3.36042 0.745 5.6375
      vertex -3.36042 0.745 -0.1375
    endloop
  endfacet
  facet normal -1 -0 0
    outer loop
      vertex -3.36042 0.745 5.6375
      vertex -3.36042 -0.745 -0.1375
      vertex -3.36042 -0.745 5.6375
    endloop
  endfacet
  facet normal 0 1 -0
    outer loop
      vertex -3.36042 -0.745 -0.1375
      vertex -3.50625 -0.745 5.6375
      vertex -3.36042 -0.745 5.6375
    endloop
  endfacet
  facet normal 0 1 0
    outer loop
      vertex -3.50625 -0.745 5.6375
      vertex -3.36042 -0.745 -0.1375
      vertex -3.50625 -0.745 -0.1375
    endloop
  endfacet
  facet normal 0 -1 0
    outer loop
      vertex -3.50625 0.745 -0.1375
      vertex -3.36042 0.745 5.6375
      vertex -3.50625 0.745 5.6375
    endloop
  endfacet
  facet normal 0 -1 -0
    outer loop
      vertex -3.36042 0.745 5.6375
      vertex -3.50625 0.745 -0.1375
      vertex -3.36042 0.745 -0.1375
    endloop
  endfacet
endsolid OpenSCAD_Model
